<?xml version="1.0" encoding="utf-8"?>
<!-- Generator: Adobe Illustrator 17.0.0, SVG Export Plug-In . SVG Version: 6.00 Build 0)  -->
<!DOCTYPE svg PUBLIC "-//W3C//DTD SVG 1.1//EN" "http://www.w3.org/Graphics/SVG/1.1/DTD/svg11.dtd">
<svg version="1.1" id="Layer_1" xmlns="http://www.w3.org/2000/svg" xmlns:xlink="http://www.w3.org/1999/xlink" x="0px" y="0px"
	 width="45px" height="45px" viewBox="0 0 45 45" enable-background="new 0 0 45 45" xml:space="preserve">
<g>
	<path d="M39.857,22.153c-0.626-0.709-1.525-1.114-2.466-1.114H26.299c-1.29,0-2.338-1.048-2.338-2.338V7.609
		c0-0.941-0.406-1.839-1.114-2.466c-0.704-0.621-1.637-0.911-2.567-0.796c-9.354,1.167-16.211,9.169-15.95,18.61
		c0.262,9.505,8.208,17.45,17.712,17.713c0.176,0.004,0.35,0.007,0.524,0.007c9.213,0,16.943-6.776,18.088-15.958
		C40.768,23.794,40.478,22.858,39.857,22.153z"/>
	<path d="M31.91,18.234h5.421c0.992,0,1.925-0.44,2.557-1.209c0.608-0.738,0.855-1.691,0.674-2.616
		c-0.986-5.07-4.901-8.985-9.971-9.971c-0.924-0.177-1.878,0.066-2.616,0.674c-0.769,0.632-1.209,1.565-1.209,2.557v5.421
		C26.766,15.927,29.073,18.234,31.91,18.234z"/>
</g>
</svg>
