<?xml version="1.0" encoding="utf-8"?>
<!-- Generator: Adobe Illustrator 17.0.0, SVG Export Plug-In . SVG Version: 6.00 Build 0)  -->
<!DOCTYPE svg PUBLIC "-//W3C//DTD SVG 1.1//EN" "http://www.w3.org/Graphics/SVG/1.1/DTD/svg11.dtd">
<svg version="1.1" id="Layer_1" xmlns="http://www.w3.org/2000/svg" xmlns:xlink="http://www.w3.org/1999/xlink" x="0px" y="0px"
	 width="45px" height="45px" viewBox="0 0 45 45" enable-background="new 0 0 45 45" xml:space="preserve">
<path d="M35.715,5.981H9.285c-2.863,0-5.192,2.328-5.192,5.192v15.103c0,2.863,2.328,5.192,5.192,5.192h7.148l-2.752,5.503
	c-0.349,0.699-0.066,1.549,0.633,1.899c0.701,0.348,1.55,0.068,1.9-0.634l3.384-6.768H25.4l3.385,6.768
	c0.249,0.498,0.748,0.784,1.268,0.784c0.212,0,0.428-0.048,0.631-0.149c0.701-0.35,0.984-1.2,0.634-1.899l-2.752-5.503h7.148
	c2.863,0,5.192-2.328,5.192-5.192V11.173C40.906,8.31,38.578,5.981,35.715,5.981z M34.828,15.95l-7.551,7.551
	c-0.277,0.277-0.638,0.415-1.001,0.415s-0.725-0.138-1.001-0.415l-6.55-6.55l-6.55,6.55c-0.553,0.553-1.449,0.553-2.002,0
	c-0.553-0.553-0.553-1.449,0-2.002l7.551-7.551c0.553-0.553,1.449-0.553,2.002,0l6.55,6.55l6.55-6.55
	c0.553-0.553,1.449-0.553,2.002,0C35.381,14.501,35.381,15.397,34.828,15.95z"/>
</svg>
