<?xml version="1.0" encoding="utf-8"?>
<!-- Generator: Adobe Illustrator 17.0.0, SVG Export Plug-In . SVG Version: 6.00 Build 0)  -->
<!DOCTYPE svg PUBLIC "-//W3C//DTD SVG 1.1//EN" "http://www.w3.org/Graphics/SVG/1.1/DTD/svg11.dtd">
<svg version="1.1" id="Layer_1" xmlns="http://www.w3.org/2000/svg" xmlns:xlink="http://www.w3.org/1999/xlink" x="0px" y="0px"
	 width="45px" height="45px" viewBox="0 0 45 45" enable-background="new 0 0 45 45" xml:space="preserve">
<path d="M35.457,9.543c-3.86-3.86-9.212-5.783-14.676-5.289C12.204,5.036,5.272,11.806,4.299,20.351
	c-0.384,3.366,0.148,6.747,1.537,9.778c0.613,1.336,0.635,2.968,0.062,4.48l-1.631,4.304c-0.196,0.518-0.071,1.103,0.321,1.496
	c0.269,0.27,0.63,0.413,0.997,0.413c0.168,0,0.337-0.029,0.499-0.092l4.305-1.632c1.51-0.571,3.144-0.551,4.478,0.062
	c3.029,1.391,6.412,1.92,9.779,1.538c8.544-0.973,15.314-7.905,16.098-16.481C41.245,18.751,39.317,13.403,35.457,9.543z
	 M22.5,21.089c2.85,0,5.168,2.318,5.168,5.168c0,2.358-1.596,4.33-3.759,4.948v2.569c0,0.778-0.631,1.41-1.41,1.41
	s-1.41-0.631-1.41-1.41v-2.349h-2.349c-0.778,0-1.41-0.631-1.41-1.41s0.631-1.41,1.41-1.41H22.5c1.296,0,2.349-1.053,2.349-2.349
	s-1.053-2.349-2.349-2.349c-2.85,0-5.168-2.318-5.168-5.168c0-2.358,1.596-4.33,3.759-4.948v-2.569c0-0.778,0.631-1.41,1.41-1.41
	s1.41,0.631,1.41,1.41v2.349h2.349c0.778,0,1.41,0.631,1.41,1.41c0,0.778-0.631,1.41-1.41,1.41H22.5
	c-1.296,0-2.349,1.053-2.349,2.349S21.204,21.089,22.5,21.089z"/>
</svg>
