<?xml version="1.0" encoding="utf-8"?>
<!-- Generator: Adobe Illustrator 17.0.0, SVG Export Plug-In . SVG Version: 6.00 Build 0)  -->
<!DOCTYPE svg PUBLIC "-//W3C//DTD SVG 1.1//EN" "http://www.w3.org/Graphics/SVG/1.1/DTD/svg11.dtd">
<svg version="1.1" id="Layer_1" xmlns="http://www.w3.org/2000/svg" xmlns:xlink="http://www.w3.org/1999/xlink" x="0px" y="0px"
	 width="45px" height="45px" viewBox="0 0 45 45" enable-background="new 0 0 45 45" xml:space="preserve">
<g>
	<path d="M12.55,22.5c0-1.488,0.07-2.927,0.201-4.31H4.345c-0.329,1.386-0.522,2.825-0.522,4.31s0.193,2.924,0.522,4.31h8.406
		C12.62,25.427,12.55,23.988,12.55,22.5z"/>
	<path d="M29.347,18.19H15.653c-0.144,1.365-0.23,2.8-0.23,4.31s0.086,2.945,0.23,4.31h13.694c0.144-1.365,0.23-2.8,0.23-4.31
		S29.491,19.555,29.347,18.19z"/>
	<path d="M28.94,15.317C27.733,8.87,25.009,4.781,22.5,4.781s-5.233,4.089-6.44,10.536H28.94z"/>
	<path d="M16.06,29.683c1.207,6.446,3.931,10.536,6.44,10.536s5.233-4.089,6.44-10.536H16.06z"/>
	<path d="M13.139,29.683H5.264c2.192,5.24,6.71,9.259,12.252,10.798C15.476,38.138,13.929,34.349,13.139,29.683z"/>
	<path d="M31.861,29.683c-0.79,4.666-2.336,8.455-4.377,10.798c5.542-1.539,10.06-5.558,12.252-10.798H31.861z"/>
	<path d="M40.655,26.81c0.329-1.386,0.522-2.825,0.522-4.31s-0.193-2.924-0.522-4.31h-8.406c0.132,1.383,0.201,2.822,0.201,4.31
		s-0.07,2.927-0.201,4.31H40.655z"/>
	<path d="M13.139,15.317c0.79-4.666,2.336-8.455,4.377-10.798c-5.542,1.539-10.06,5.558-12.252,10.798H13.139z"/>
	<path d="M31.861,15.317h7.875c-2.192-5.24-6.71-9.259-12.252-10.798C29.524,6.862,31.071,10.651,31.861,15.317z"/>
</g>
</svg>
