<?xml version="1.0" encoding="utf-8"?>
<!-- Generator: Adobe Illustrator 17.0.0, SVG Export Plug-In . SVG Version: 6.00 Build 0)  -->
<!DOCTYPE svg PUBLIC "-//W3C//DTD SVG 1.1//EN" "http://www.w3.org/Graphics/SVG/1.1/DTD/svg11.dtd">
<svg version="1.1" id="Layer_1" xmlns="http://www.w3.org/2000/svg" xmlns:xlink="http://www.w3.org/1999/xlink" x="0px" y="0px"
	 width="45px" height="45px" viewBox="0 0 45 45" enable-background="new 0 0 45 45" xml:space="preserve">
<g>
	<path d="M22.5,5.908c-2.884,0-5.23,2.346-5.23,5.23v24.724c0,2.884,2.346,5.23,5.23,5.23s5.23-2.346,5.23-5.23V11.138
		C27.73,8.254,25.384,5.908,22.5,5.908z"/>
	<path d="M35.813,15.417c-2.884,0-5.23,2.346-5.23,5.23v15.215c0,2.884,2.346,5.23,5.23,5.23s5.23-2.346,5.23-5.23V20.647
		C41.043,17.763,38.697,15.417,35.813,15.417z"/>
	<path d="M9.187,23.025c-2.884,0-5.23,2.346-5.23,5.23v7.607c0,2.884,2.346,5.23,5.23,5.23s5.23-2.346,5.23-5.23v-7.607
		C14.417,25.37,12.072,23.025,9.187,23.025z"/>
</g>
</svg>
