<?xml version="1.0" encoding="utf-8"?>
<!-- Generator: Adobe Illustrator 17.0.0, SVG Export Plug-In . SVG Version: 6.00 Build 0)  -->
<!DOCTYPE svg PUBLIC "-//W3C//DTD SVG 1.1//EN" "http://www.w3.org/Graphics/SVG/1.1/DTD/svg11.dtd">
<svg version="1.1" id="Layer_1" xmlns="http://www.w3.org/2000/svg" xmlns:xlink="http://www.w3.org/1999/xlink" x="0px" y="0px"
	 width="45px" height="45px" viewBox="0 0 45 45" enable-background="new 0 0 45 45" xml:space="preserve">
<g>
	<path d="M34.749,4.126H30.98c-3.377,0-6.125,2.748-6.125,6.125v3.769c0,3.377,2.748,6.125,6.125,6.125h3.769
		c3.377,0,6.125-2.748,6.125-6.125v-3.769C40.874,6.873,38.127,4.126,34.749,4.126z"/>
	<path d="M34.749,24.856H30.98c-3.377,0-6.125,2.748-6.125,6.125v3.769c0,3.377,2.748,6.125,6.125,6.125h3.769
		c3.377,0,6.125-2.748,6.125-6.125V30.98C40.874,27.603,38.127,24.856,34.749,24.856z"/>
	<path d="M14.02,4.126h-3.769c-3.377,0-6.125,2.748-6.125,6.125v3.769c0,3.377,2.748,6.125,6.125,6.125h3.769
		c3.377,0,6.125-2.748,6.125-6.125v-3.769C20.144,6.873,17.397,4.126,14.02,4.126z"/>
	<path d="M13.077,24.856c-3.896,0-7.067,3.17-7.067,7.067c0,1.438,0.437,2.774,1.177,3.891L4.54,38.462
		c-0.552,0.552-0.552,1.447,0,1.999c0.276,0.276,0.637,0.414,0.999,0.414c0.363,0,0.723-0.138,0.999-0.414l2.648-2.648
		c1.117,0.741,2.453,1.177,3.891,1.177c3.896,0,7.067-3.17,7.067-7.067S16.973,24.856,13.077,24.856z"/>
</g>
</svg>
